# xmcd
#
# Track frame offsets:
#	150
#	18925
#	30845
#	43150
#	56315
#	70257
#	81157
#	100240
#	116820
#	126427
#
# Disc length: 1851
#
# Revision: 1
# Processed by: cddbd v1.5.1PL0 Copyright (c) Steve Scherf et al.
# Submitted via: ExactAudioCopy v0.90b4
# Normalized: r0:DSETVAR1
#
DISCID=7e07390a
DTITLE=Various Artist - That Was Country-Early 70's
DYEAR=1990
DGENRE=Country
TTITLE0=Johnny Cash - Sunday Morning Comin' Down
TTITLE1=Lynn Anderson - You're My Man
TTITLE2=Sonny James - When The Snow Is On The Roses
TTITLE3=Johnny Paycheck - She's All I Got
TTITLE4=Tanya Tucker - What's Your Mama's Name
TTITLE5=Freddy Weller - The Promised Land
TTITLE6=Tammy Wynette - Bedtime Story
TTITLE7=Ray Price - I Won't Mention It Again
TTITLE8=Barbara Mandrell - Tonight My Baby's Comin' Home
TTITLE9=Johnny Duncan - Sweet Country Woman
EXTD=
EXTT0=
EXTT1=
EXTT2=
EXTT3=
EXTT4=
EXTT5=
EXTT6=
EXTT7=
EXTT8=
EXTT9=
PLAYORDER=
